<?xml version="1.0" encoding="utf-8"?>
<!-- Generator: Adobe Illustrator 24.1.0, SVG Export Plug-In . SVG Version: 6.00 Build 0)  -->
<svg version="1.1" id="レイヤー_1" xmlns="http://www.w3.org/2000/svg" xmlns:xlink="http://www.w3.org/1999/xlink" x="0px"
	 y="0px" viewBox="0 0 24 24" style="enable-background:new 0 0 24 24;" xml:space="preserve">
<style type="text/css">
	.st0{fill:none;}
	.st1{fill:#FFFFFF;}
</style>
<path class="st0" d="M0,0h24v24H0V0z"/>
<path class="st1" d="M12,9c-1.6,0-3.1,0.2-4.6,0.7v3.1c0,0.4-0.2,0.7-0.6,0.9c-1,0.5-1.9,1.1-2.7,1.9c-0.2,0.2-0.4,0.3-0.7,0.3
	c-0.3,0-0.5-0.1-0.7-0.3l-2.5-2.5C0.1,12.9,0,12.7,0,12.4s0.1-0.5,0.3-0.7C3.3,8.8,7.5,7,12,7s8.7,1.8,11.7,4.7
	c0.2,0.2,0.3,0.4,0.3,0.7s-0.1,0.5-0.3,0.7l-2.5,2.5c-0.2,0.2-0.4,0.3-0.7,0.3c-0.3,0-0.5-0.1-0.7-0.3c-0.8-0.7-1.7-1.4-2.7-1.9
	c-0.3-0.2-0.6-0.5-0.6-0.9V9.7C15.1,9.2,13.6,9,12,9z"/>
</svg>
