<?xml version="1.0" encoding="utf-8"?>
<!-- Generator: Adobe Illustrator 24.1.0, SVG Export Plug-In . SVG Version: 6.00 Build 0)  -->
<svg version="1.1" id="レイヤー_1" xmlns="http://www.w3.org/2000/svg" xmlns:xlink="http://www.w3.org/1999/xlink" x="0px"
	 y="0px" viewBox="0 0 24 24" style="enable-background:new 0 0 24 24;" xml:space="preserve">
<style type="text/css">
	.st0{fill:#FFFFFF;}
	.st1{fill:none;}
</style>
<path class="st0" d="M12,15c1.7,0,3-1.3,3-3l0-6c0-1.7-1.3-3-3-3S9,4.3,9,6v6C9,13.7,10.3,15,12,15z M17.3,12c0,3-2.5,5.1-5.3,5.1
	S6.7,15,6.7,12H5c0,3.4,2.7,6.2,6,6.7V22h2v-3.3c3.3-0.5,6-3.3,6-6.7H17.3z"/>
<path class="st1" d="M0,0h24v24H0V0z"/>
</svg>
