<svg xmlns="http://www.w3.org/2000/svg" viewBox="0 0 234 20"><defs><style>.cls-1{fill:#f7f7f7;}.cls-2{fill:#418ffe;}</style></defs><g id="レイヤー_2" data-name="レイヤー 2"><g id="レイヤー_1-2" data-name="レイヤー 1"><rect class="cls-1" x="55.41" width="40" height="20" rx="2.83"/><path class="cls-1" d="M11.37,15.83l-.27,2.08H0l8.92-13H2.57l.25-2.08h10l-8.89,13Z"/><path class="cls-1" d="M23.39,13.23a4.76,4.76,0,0,1-1.47,3.54,4.89,4.89,0,0,1-3.59,1.44,5.07,5.07,0,0,1-3.65-1.36,4.58,4.58,0,0,1-1.43-3.46,4.69,4.69,0,0,1,1.48-3.55,5.14,5.14,0,0,1,3.71-1.43A4.87,4.87,0,0,1,22,9.76,4.56,4.56,0,0,1,23.39,13.23Zm-2.18-.11a2.84,2.84,0,0,0-.77-2.1,2.69,2.69,0,0,0-2-.8,2.82,2.82,0,0,0-2.15.89,3.13,3.13,0,0,0-.85,2.25,3.05,3.05,0,0,0,.8,2.2,2.69,2.69,0,0,0,2.07.85,2.66,2.66,0,0,0,2.09-.93A3.4,3.4,0,0,0,21.21,13.12Z"/><path class="cls-1" d="M35.42,13.23A4.79,4.79,0,0,1,34,16.77a4.93,4.93,0,0,1-3.6,1.44,5.07,5.07,0,0,1-3.65-1.36,4.58,4.58,0,0,1-1.43-3.46,4.69,4.69,0,0,1,1.48-3.55,5.14,5.14,0,0,1,3.71-1.43A4.85,4.85,0,0,1,34,9.76,4.56,4.56,0,0,1,35.42,13.23Zm-2.18-.11a2.84,2.84,0,0,0-.77-2.1,2.69,2.69,0,0,0-2-.8,2.82,2.82,0,0,0-2.15.89,3.13,3.13,0,0,0-.85,2.25,3.05,3.05,0,0,0,.8,2.2,2.72,2.72,0,0,0,2.07.85,2.65,2.65,0,0,0,2.09-.93A3.35,3.35,0,0,0,33.24,13.12Z"/><path class="cls-1" d="M40.65,8.71l-.09.86a3.46,3.46,0,0,1,2.53-1.09,2.35,2.35,0,0,1,1.33.32A2.4,2.4,0,0,1,45.26,10a4,4,0,0,1,3-1.46C50,8.49,51,9.33,51,11c0,.17,0,.41-.05.71s-.07.69-.12,1.14l-.62,5.06H48l.66-5.32a10.05,10.05,0,0,0,.09-1.09,1.06,1.06,0,0,0-1.21-1.2,2.09,2.09,0,0,0-.83.14,1.38,1.38,0,0,0-.6.44,2.33,2.33,0,0,0-.41.77,5.79,5.79,0,0,0-.25,1.13l-.63,5.13H42.67l.67-5.45q.09-.75.09-1c0-.76-.42-1.14-1.24-1.14q-1.8,0-2.1,2.49l-.64,5.12H37.29l1.14-9.2Z"/><path class="cls-1" d="M100.14,5.27V2.69h10.38V5.27Zm0,4.29V7h10.38V9.56Zm15.92,5.74a3.11,3.11,0,0,1-3,2.92H101.72l-.64-2.78h11.78V6.89h3.22Zm-3.22-9.41V2.35h1.6V5.89Zm2.12,0V2.35h1.6V5.89Z"/><path class="cls-1" d="M129.42,9.28v6.5h5.3v2.36H120.57V15.78h5.31V9.28h-3.77V6.92H133.2V9.28Z"/><path class="cls-1" d="M154.52,3.51l-4,6.05,6.3,6.74h-3.86l-3.74-3.92v5.88h-3.54V13l-3.52,3.26h-4.25l8.37-7.17L149,6.07h-8.95V3.51h5.59V2.29h3.54V3.51Z"/><path class="cls-1" d="M173.42,15.46V10.29h3.22v4.65a3.63,3.63,0,0,1-2.9,3.26l0,0h-9.35a3.53,3.53,0,0,1-3.32-3.28l0-12.57h3.22V15.46Z"/><path class="cls-1" d="M180.09,11.88V8.71h14.55l-1,3.17Z"/><path class="cls-1" d="M214.22,3.77V15.38a2.8,2.8,0,0,1-2.64,2.82h-8.72l-.65-2.76H211V11.58h-6.6L203.58,9H211V6.33h-8V8.67A3.62,3.62,0,0,1,199.63,12H199V8.86h.54V2.37h3.55V3.75Z"/><path class="cls-1" d="M219.46,11.88V8.71H234l-1,3.17Z"/><path class="cls-2" d="M67.66,3.28q-.31.44-.63.81h3.75L71,3.84l1.5,1.25A24.61,24.61,0,0,1,68,10.34h5.69v6.88H71.41v-.56H65.84v.81H63.59V13.09l-2.43,1c-.38-.66-.79-1.33-1.25-2A18,18,0,0,0,65,10a12.86,12.86,0,0,0-1.81-1.69L64.72,7a14.89,14.89,0,0,1,1.94,1.75,16.74,16.74,0,0,0,2.56-2.63h-4c-.79.71-1.46,1.28-2,1.69a10.07,10.07,0,0,1-2,1.25,8.44,8.44,0,0,0-1.38-1.69,16,16,0,0,0,5.5-4.68ZM65.84,14.72h5.57V12.34H65.84Z"/><path class="cls-2" d="M81.22,2.84V5.53h2V7.78h-2v.88a24.73,24.73,0,0,0,2.37,1.62l-1.12,2.19a14.8,14.8,0,0,1-1.25-.88v5.57H79V12.22c-.54.79-1.1,1.54-1.69,2.25a12.12,12.12,0,0,0-1.62-2.31,20.68,20.68,0,0,0,3-4.38H76.53V5.53H79V2.84ZM86.41,3V14.22a.45.45,0,0,0,.25.44,5.61,5.61,0,0,0,1.12.06c.42,0,.67-.06.75-.19a3.9,3.9,0,0,0,.31-1.37,14.9,14.9,0,0,0,1.5.62c.38.13.65.21.82.25A8,8,0,0,1,90,16.66a2.06,2.06,0,0,1-1.44.37H85.91C84.62,17,84,16.45,84,15.28V3Z"/></g></g></svg>